<?xml version="1.0" encoding="UTF-8" standalone="no"?>
<!-- Created with Inkscape (http://www.inkscape.org/) -->

<svg
   xmlns:dc="http://purl.org/dc/elements/1.1/"
   xmlns:cc="http://creativecommons.org/ns#"
   xmlns:rdf="http://www.w3.org/1999/02/22-rdf-syntax-ns#"
   xmlns:svg="http://www.w3.org/2000/svg"
   xmlns="http://www.w3.org/2000/svg"
   xmlns:sodipodi="http://sodipodi.sourceforge.net/DTD/sodipodi-0.dtd"
   xmlns:inkscape="http://www.inkscape.org/namespaces/inkscape"
   width="89.332008mm"
   height="63.775024mm"
   viewBox="0 0 89.332007 63.775024"
   version="1.1"
   id="svg1754"
   inkscape:version="0.92.4 (5da689c313, 2019-01-14)"
   sodipodi:docname="Figure 11.svg">
  <defs
     id="defs1748">
    <marker
       inkscape:isstock="true"
       style="overflow:visible"
       id="marker11770-4-3"
       refX="0"
       refY="0"
       orient="auto"
       inkscape:stockid="Arrow2Mend">
      <path
         inkscape:connector-curvature="0"
         transform="scale(-0.6)"
         d="M 8.7185878,4.0337352 -2.2072895,0.01601326 8.7185884,-4.0017078 c -1.7454984,2.3720609 -1.7354408,5.6174519 -6e-7,8.035443 z"
         style="fill:#000000;fill-opacity:1;fill-rule:evenodd;stroke:#000000;stroke-width:0.625;stroke-linejoin:round;stroke-opacity:1"
         id="path11768-6-7" />
    </marker>
    <marker
       inkscape:isstock="true"
       style="overflow:visible"
       id="marker11854-2"
       refX="0"
       refY="0"
       orient="auto"
       inkscape:stockid="Arrow2Mend">
      <path
         inkscape:connector-curvature="0"
         transform="scale(-0.6)"
         d="M 8.7185878,4.0337352 -2.2072895,0.01601326 8.7185884,-4.0017078 c -1.7454984,2.3720609 -1.7354408,5.6174519 -6e-7,8.035443 z"
         style="fill:#000000;fill-opacity:1;fill-rule:evenodd;stroke:#000000;stroke-width:0.625;stroke-linejoin:round;stroke-opacity:1"
         id="path11852-5" />
    </marker>
    <marker
       inkscape:isstock="true"
       style="overflow:visible"
       id="marker11820-6"
       refX="0"
       refY="0"
       orient="auto"
       inkscape:stockid="Arrow2Mend">
      <path
         inkscape:connector-curvature="0"
         transform="scale(-0.6)"
         d="M 8.7185878,4.0337352 -2.2072895,0.01601326 8.7185884,-4.0017078 c -1.7454984,2.3720609 -1.7354408,5.6174519 -6e-7,8.035443 z"
         style="fill:#000000;fill-opacity:1;fill-rule:evenodd;stroke:#000000;stroke-width:0.625;stroke-linejoin:round;stroke-opacity:1"
         id="path11818-2" />
    </marker>
    <marker
       inkscape:isstock="true"
       style="overflow:visible"
       id="marker11792-0"
       refX="0"
       refY="0"
       orient="auto"
       inkscape:stockid="Arrow2Mend">
      <path
         inkscape:connector-curvature="0"
         transform="scale(-0.6)"
         d="M 8.7185878,4.0337352 -2.2072895,0.01601326 8.7185884,-4.0017078 c -1.7454984,2.3720609 -1.7354408,5.6174519 -6e-7,8.035443 z"
         style="fill:#000000;fill-opacity:1;fill-rule:evenodd;stroke:#000000;stroke-width:0.625;stroke-linejoin:round;stroke-opacity:1"
         id="path11790-2" />
    </marker>
    <marker
       inkscape:isstock="true"
       style="overflow:visible"
       id="marker11770-0"
       refX="0"
       refY="0"
       orient="auto"
       inkscape:stockid="Arrow2Mend">
      <path
         inkscape:connector-curvature="0"
         transform="scale(-0.6)"
         d="M 8.7185878,4.0337352 -2.2072895,0.01601326 8.7185884,-4.0017078 c -1.7454984,2.3720609 -1.7354408,5.6174519 -6e-7,8.035443 z"
         style="fill:#000000;fill-opacity:1;fill-rule:evenodd;stroke:#000000;stroke-width:0.625;stroke-linejoin:round;stroke-opacity:1"
         id="path11768-3" />
    </marker>
    <marker
       inkscape:stockid="DotM"
       orient="auto"
       refY="0"
       refX="0"
       id="DotM-2"
       style="overflow:visible"
       inkscape:isstock="true">
      <path
         inkscape:connector-curvature="0"
         id="path11247-2"
         d="m -2.5,-1 c 0,2.76 -2.24,5 -5,5 -2.76,0 -5,-2.24 -5,-5 0,-2.76 2.24,-5 5,-5 2.76,0 5,2.24 5,5 z"
         style="fill:#000000;fill-opacity:1;fill-rule:evenodd;stroke:#000000;stroke-width:1.00000003pt;stroke-opacity:1"
         transform="matrix(0.4,0,0,0.4,2.96,0.4)" />
    </marker>
    <marker
       inkscape:isstock="true"
       style="overflow:visible"
       id="marker11770-4"
       refX="0"
       refY="0"
       orient="auto"
       inkscape:stockid="Arrow2Mend">
      <path
         inkscape:connector-curvature="0"
         transform="scale(-0.6)"
         d="M 8.7185878,4.0337352 -2.2072895,0.01601326 8.7185884,-4.0017078 c -1.7454984,2.3720609 -1.7354408,5.6174519 -6e-7,8.035443 z"
         style="fill:#000000;fill-opacity:1;fill-rule:evenodd;stroke:#000000;stroke-width:0.625;stroke-linejoin:round;stroke-opacity:1"
         id="path11768-6" />
    </marker>
    <marker
       inkscape:isstock="true"
       style="overflow:visible"
       id="marker13833"
       refX="0"
       refY="0"
       orient="auto"
       inkscape:stockid="DotS">
      <path
         inkscape:connector-curvature="0"
         transform="matrix(0.2,0,0,0.2,1.48,0.2)"
         style="fill:#000000;fill-opacity:1;fill-rule:evenodd;stroke:#000000;stroke-width:1.00000003pt;stroke-opacity:1"
         d="m -2.5,-1 c 0,2.76 -2.24,5 -5,5 -2.76,0 -5,-2.24 -5,-5 0,-2.76 2.24,-5 5,-5 2.76,0 5,2.24 5,5 z"
         id="path13831" />
    </marker>
    <marker
       inkscape:stockid="Arrow2Mend"
       orient="auto"
       refY="0"
       refX="0"
       id="marker14283"
       style="overflow:visible"
       inkscape:isstock="true">
      <path
         id="path14281"
         style="fill:#000000;fill-opacity:1;fill-rule:evenodd;stroke:#000000;stroke-width:0.625;stroke-linejoin:round;stroke-opacity:1"
         d="M 8.7185878,4.0337352 -2.2072895,0.01601326 8.7185884,-4.0017078 c -1.7454984,2.3720609 -1.7354408,5.6174519 -6e-7,8.035443 z"
         transform="scale(-0.6)"
         inkscape:connector-curvature="0" />
    </marker>
    <marker
       inkscape:stockid="Arrow2Mend"
       orient="auto"
       refY="0"
       refX="0"
       id="marker14431"
       style="overflow:visible"
       inkscape:isstock="true">
      <path
         id="path14429"
         style="fill:#000000;fill-opacity:1;fill-rule:evenodd;stroke:#000000;stroke-width:0.625;stroke-linejoin:round;stroke-opacity:1"
         d="M 8.7185878,4.0337352 -2.2072895,0.01601326 8.7185884,-4.0017078 c -1.7454984,2.3720609 -1.7354408,5.6174519 -6e-7,8.035443 z"
         transform="scale(-0.6)"
         inkscape:connector-curvature="0" />
    </marker>
    <marker
       inkscape:isstock="true"
       style="overflow:visible"
       id="marker11770-4-3-08"
       refX="0"
       refY="0"
       orient="auto"
       inkscape:stockid="Arrow2Mend">
      <path
         inkscape:connector-curvature="0"
         transform="scale(-0.6)"
         d="M 8.7185878,4.0337352 -2.2072895,0.01601326 8.7185884,-4.0017078 c -1.7454984,2.3720609 -1.7354408,5.6174519 -6e-7,8.035443 z"
         style="fill:#000000;fill-opacity:1;fill-rule:evenodd;stroke:#000000;stroke-width:0.625;stroke-linejoin:round;stroke-opacity:1"
         id="path11768-6-7-0" />
    </marker>
    <marker
       inkscape:isstock="true"
       style="overflow:visible"
       id="marker11854-2-4"
       refX="0"
       refY="0"
       orient="auto"
       inkscape:stockid="Arrow2Mend">
      <path
         inkscape:connector-curvature="0"
         transform="scale(-0.6)"
         d="M 8.7185878,4.0337352 -2.2072895,0.01601326 8.7185884,-4.0017078 c -1.7454984,2.3720609 -1.7354408,5.6174519 -6e-7,8.035443 z"
         style="fill:#000000;fill-opacity:1;fill-rule:evenodd;stroke:#000000;stroke-width:0.625;stroke-linejoin:round;stroke-opacity:1"
         id="path11852-5-6" />
    </marker>
    <marker
       inkscape:isstock="true"
       style="overflow:visible"
       id="marker11854-2-1-4-9"
       refX="0"
       refY="0"
       orient="auto"
       inkscape:stockid="Arrow2Mend">
      <path
         inkscape:connector-curvature="0"
         transform="scale(-0.6)"
         d="M 8.7185878,4.0337352 -2.2072895,0.01601326 8.7185884,-4.0017078 c -1.7454984,2.3720609 -1.7354408,5.6174519 -6e-7,8.035443 z"
         style="fill:#000000;fill-opacity:1;fill-rule:evenodd;stroke:#000000;stroke-width:0.625;stroke-linejoin:round;stroke-opacity:1"
         id="path11852-5-9-9-2" />
    </marker>
    <marker
       inkscape:isstock="true"
       style="overflow:visible"
       id="marker11854-2-1-90-4"
       refX="0"
       refY="0"
       orient="auto"
       inkscape:stockid="Arrow2Mend">
      <path
         inkscape:connector-curvature="0"
         transform="scale(-0.6)"
         d="M 8.7185878,4.0337352 -2.2072895,0.01601326 8.7185884,-4.0017078 c -1.7454984,2.3720609 -1.7354408,5.6174519 -6e-7,8.035443 z"
         style="fill:#000000;fill-opacity:1;fill-rule:evenodd;stroke:#000000;stroke-width:0.625;stroke-linejoin:round;stroke-opacity:1"
         id="path11852-5-9-3-1" />
    </marker>
    <marker
       inkscape:isstock="true"
       style="overflow:visible"
       id="marker11820-6-8-3-3"
       refX="0"
       refY="0"
       orient="auto"
       inkscape:stockid="Arrow2Mend">
      <path
         inkscape:connector-curvature="0"
         transform="scale(-0.6)"
         d="M 8.7185878,4.0337352 -2.2072895,0.01601326 8.7185884,-4.0017078 c -1.7454984,2.3720609 -1.7354408,5.6174519 -6e-7,8.035443 z"
         style="fill:#000000;fill-opacity:1;fill-rule:evenodd;stroke:#000000;stroke-width:0.625;stroke-linejoin:round;stroke-opacity:1"
         id="path11818-2-6-5-7" />
    </marker>
    <marker
       inkscape:stockid="DotM"
       orient="auto"
       refY="0"
       refX="0"
       id="DotM-2-1-5-3"
       style="overflow:visible"
       inkscape:isstock="true">
      <path
         inkscape:connector-curvature="0"
         id="path11247-2-5-7-3"
         d="m -2.5,-1 c 0,2.76 -2.24,5 -5,5 -2.76,0 -5,-2.24 -5,-5 0,-2.76 2.24,-5 5,-5 2.76,0 5,2.24 5,5 z"
         style="fill:#000000;fill-opacity:1;fill-rule:evenodd;stroke:#000000;stroke-width:1.00000003pt;stroke-opacity:1"
         transform="matrix(0.4,0,0,0.4,2.96,0.4)" />
    </marker>
    <marker
       inkscape:isstock="true"
       style="overflow:visible"
       id="marker17139-1-9"
       refX="0"
       refY="0"
       orient="auto"
       inkscape:stockid="Arrow2Mend">
      <path
         inkscape:connector-curvature="0"
         transform="scale(-0.6)"
         d="M 8.7185878,4.0337352 -2.2072895,0.01601326 8.7185884,-4.0017078 c -1.7454984,2.3720609 -1.7354408,5.6174519 -6e-7,8.035443 z"
         style="fill:#000000;fill-opacity:1;fill-rule:evenodd;stroke:#000000;stroke-width:0.625;stroke-linejoin:round;stroke-opacity:1"
         id="path17137-7-8" />
    </marker>
    <marker
       inkscape:isstock="true"
       style="overflow:visible"
       id="marker11854-2-1-9-0-94"
       refX="0"
       refY="0"
       orient="auto"
       inkscape:stockid="Arrow2Mend">
      <path
         inkscape:connector-curvature="0"
         transform="scale(-0.6)"
         d="M 8.7185878,4.0337352 -2.2072895,0.01601326 8.7185884,-4.0017078 c -1.7454984,2.3720609 -1.7354408,5.6174519 -6e-7,8.035443 z"
         style="fill:#000000;fill-opacity:1;fill-rule:evenodd;stroke:#000000;stroke-width:0.625;stroke-linejoin:round;stroke-opacity:1"
         id="path11852-5-9-4-8-8" />
    </marker>
    <marker
       inkscape:isstock="true"
       style="overflow:visible"
       id="marker11820-6-8-1-9-9"
       refX="0"
       refY="0"
       orient="auto"
       inkscape:stockid="Arrow2Mend">
      <path
         inkscape:connector-curvature="0"
         transform="scale(-0.6)"
         d="M 8.7185878,4.0337352 -2.2072895,0.01601326 8.7185884,-4.0017078 c -1.7454984,2.3720609 -1.7354408,5.6174519 -6e-7,8.035443 z"
         style="fill:#000000;fill-opacity:1;fill-rule:evenodd;stroke:#000000;stroke-width:0.625;stroke-linejoin:round;stroke-opacity:1"
         id="path11818-2-6-7-1-1" />
    </marker>
    <marker
       inkscape:stockid="DotM"
       orient="auto"
       refY="0"
       refX="0"
       id="DotM-2-1-2-4-8"
       style="overflow:visible"
       inkscape:isstock="true">
      <path
         inkscape:connector-curvature="0"
         id="path11247-2-5-9-7-8"
         d="m -2.5,-1 c 0,2.76 -2.24,5 -5,5 -2.76,0 -5,-2.24 -5,-5 0,-2.76 2.24,-5 5,-5 2.76,0 5,2.24 5,5 z"
         style="fill:#000000;fill-opacity:1;fill-rule:evenodd;stroke:#000000;stroke-width:1.00000003pt;stroke-opacity:1"
         transform="matrix(0.4,0,0,0.4,2.96,0.4)" />
    </marker>
    <marker
       inkscape:isstock="true"
       style="overflow:visible"
       id="marker17139-5-6-3"
       refX="0"
       refY="0"
       orient="auto"
       inkscape:stockid="Arrow2Mend">
      <path
         inkscape:connector-curvature="0"
         transform="scale(-0.6)"
         d="M 8.7185878,4.0337352 -2.2072895,0.01601326 8.7185884,-4.0017078 c -1.7454984,2.3720609 -1.7354408,5.6174519 -6e-7,8.035443 z"
         style="fill:#000000;fill-opacity:1;fill-rule:evenodd;stroke:#000000;stroke-width:0.625;stroke-linejoin:round;stroke-opacity:1"
         id="path17137-4-2-59" />
    </marker>
    <marker
       inkscape:isstock="true"
       style="overflow:visible"
       id="marker11854-2-1-3"
       refX="0"
       refY="0"
       orient="auto"
       inkscape:stockid="Arrow2Mend">
      <path
         inkscape:connector-curvature="0"
         transform="scale(-0.6)"
         d="M 8.7185878,4.0337352 -2.2072895,0.01601326 8.7185884,-4.0017078 c -1.7454984,2.3720609 -1.7354408,5.6174519 -6e-7,8.035443 z"
         style="fill:#000000;fill-opacity:1;fill-rule:evenodd;stroke:#000000;stroke-width:0.625;stroke-linejoin:round;stroke-opacity:1"
         id="path11852-5-9-7" />
    </marker>
    <marker
       inkscape:isstock="true"
       style="overflow:visible"
       id="marker11820-6-8-68"
       refX="0"
       refY="0"
       orient="auto"
       inkscape:stockid="Arrow2Mend">
      <path
         inkscape:connector-curvature="0"
         transform="scale(-0.6)"
         d="M 8.7185878,4.0337352 -2.2072895,0.01601326 8.7185884,-4.0017078 c -1.7454984,2.3720609 -1.7354408,5.6174519 -6e-7,8.035443 z"
         style="fill:#000000;fill-opacity:1;fill-rule:evenodd;stroke:#000000;stroke-width:0.625;stroke-linejoin:round;stroke-opacity:1"
         id="path11818-2-6-38" />
    </marker>
    <marker
       inkscape:stockid="DotM"
       orient="auto"
       refY="0"
       refX="0"
       id="DotM-2-1-54"
       style="overflow:visible"
       inkscape:isstock="true">
      <path
         inkscape:connector-curvature="0"
         id="path11247-2-5-30"
         d="m -2.5,-1 c 0,2.76 -2.24,5 -5,5 -2.76,0 -5,-2.24 -5,-5 0,-2.76 2.24,-5 5,-5 2.76,0 5,2.24 5,5 z"
         style="fill:#000000;fill-opacity:1;fill-rule:evenodd;stroke:#000000;stroke-width:1.00000003pt;stroke-opacity:1"
         transform="matrix(0.4,0,0,0.4,2.96,0.4)" />
    </marker>
    <marker
       inkscape:isstock="true"
       style="overflow:visible"
       id="marker17139-2"
       refX="0"
       refY="0"
       orient="auto"
       inkscape:stockid="Arrow2Mend">
      <path
         inkscape:connector-curvature="0"
         transform="scale(-0.6)"
         d="M 8.7185878,4.0337352 -2.2072895,0.01601326 8.7185884,-4.0017078 c -1.7454984,2.3720609 -1.7354408,5.6174519 -6e-7,8.035443 z"
         style="fill:#000000;fill-opacity:1;fill-rule:evenodd;stroke:#000000;stroke-width:0.625;stroke-linejoin:round;stroke-opacity:1"
         id="path17137-3" />
    </marker>
    <marker
       inkscape:isstock="true"
       style="overflow:visible"
       id="marker11854-2-1-9-3"
       refX="0"
       refY="0"
       orient="auto"
       inkscape:stockid="Arrow2Mend">
      <path
         inkscape:connector-curvature="0"
         transform="scale(-0.6)"
         d="M 8.7185878,4.0337352 -2.2072895,0.01601326 8.7185884,-4.0017078 c -1.7454984,2.3720609 -1.7354408,5.6174519 -6e-7,8.035443 z"
         style="fill:#000000;fill-opacity:1;fill-rule:evenodd;stroke:#000000;stroke-width:0.625;stroke-linejoin:round;stroke-opacity:1"
         id="path11852-5-9-4-42" />
    </marker>
    <marker
       inkscape:isstock="true"
       style="overflow:visible"
       id="marker11820-6-8-1-1"
       refX="0"
       refY="0"
       orient="auto"
       inkscape:stockid="Arrow2Mend">
      <path
         inkscape:connector-curvature="0"
         transform="scale(-0.6)"
         d="M 8.7185878,4.0337352 -2.2072895,0.01601326 8.7185884,-4.0017078 c -1.7454984,2.3720609 -1.7354408,5.6174519 -6e-7,8.035443 z"
         style="fill:#000000;fill-opacity:1;fill-rule:evenodd;stroke:#000000;stroke-width:0.625;stroke-linejoin:round;stroke-opacity:1"
         id="path11818-2-6-7-2" />
    </marker>
    <marker
       inkscape:stockid="DotM"
       orient="auto"
       refY="0"
       refX="0"
       id="DotM-2-1-2-40"
       style="overflow:visible"
       inkscape:isstock="true">
      <path
         inkscape:connector-curvature="0"
         id="path11247-2-5-9-9"
         d="m -2.5,-1 c 0,2.76 -2.24,5 -5,5 -2.76,0 -5,-2.24 -5,-5 0,-2.76 2.24,-5 5,-5 2.76,0 5,2.24 5,5 z"
         style="fill:#000000;fill-opacity:1;fill-rule:evenodd;stroke:#000000;stroke-width:1.00000003pt;stroke-opacity:1"
         transform="matrix(0.4,0,0,0.4,2.96,0.4)" />
    </marker>
    <marker
       inkscape:isstock="true"
       style="overflow:visible"
       id="marker17139-5-69"
       refX="0"
       refY="0"
       orient="auto"
       inkscape:stockid="Arrow2Mend">
      <path
         inkscape:connector-curvature="0"
         transform="scale(-0.6)"
         d="M 8.7185878,4.0337352 -2.2072895,0.01601326 8.7185884,-4.0017078 c -1.7454984,2.3720609 -1.7354408,5.6174519 -6e-7,8.035443 z"
         style="fill:#000000;fill-opacity:1;fill-rule:evenodd;stroke:#000000;stroke-width:0.625;stroke-linejoin:round;stroke-opacity:1"
         id="path17137-4-3" />
    </marker>
    <marker
       inkscape:stockid="DotL"
       orient="auto"
       refY="0"
       refX="0"
       id="DotL-8-6"
       style="overflow:visible"
       inkscape:isstock="true">
      <path
         inkscape:connector-curvature="0"
         id="path25837-6-2"
         d="m -2.5,-1 c 0,2.76 -2.24,5 -5,5 -2.76,0 -5,-2.24 -5,-5 0,-2.76 2.24,-5 5,-5 2.76,0 5,2.24 5,5 z"
         style="fill:#5a5a5a;fill-opacity:1;fill-rule:evenodd;stroke:#5a5a5a;stroke-width:1.00000003pt;stroke-opacity:1"
         transform="matrix(0.8,0,0,0.8,5.92,0.8)" />
    </marker>
    <marker
       inkscape:stockid="DotL"
       orient="auto"
       refY="0"
       refX="0"
       id="DotL-0"
       style="overflow:visible"
       inkscape:isstock="true">
      <path
         inkscape:connector-curvature="0"
         id="path25837-3"
         d="m -2.5,-1 c 0,2.76 -2.24,5 -5,5 -2.76,0 -5,-2.24 -5,-5 0,-2.76 2.24,-5 5,-5 2.76,0 5,2.24 5,5 z"
         style="fill:#5a5a5a;fill-opacity:1;fill-rule:evenodd;stroke:#5a5a5a;stroke-width:1.00000003pt;stroke-opacity:1"
         transform="matrix(0.8,0,0,0.8,5.92,0.8)" />
    </marker>
    <marker
       inkscape:stockid="DotL"
       orient="auto"
       refY="0"
       refX="0"
       id="DotL-9-2"
       style="overflow:visible"
       inkscape:isstock="true">
      <path
         inkscape:connector-curvature="0"
         id="path25837-2-2"
         d="m -2.5,-1 c 0,2.76 -2.24,5 -5,5 -2.76,0 -5,-2.24 -5,-5 0,-2.76 2.24,-5 5,-5 2.76,0 5,2.24 5,5 z"
         style="fill:#5a5a5a;fill-opacity:1;fill-rule:evenodd;stroke:#5a5a5a;stroke-width:1.00000003pt;stroke-opacity:1"
         transform="matrix(0.8,0,0,0.8,5.92,0.8)" />
    </marker>
    <filter
       style="color-interpolation-filters:sRGB"
       inkscape:label="Greyscale"
       id="filter1065-45">
      <feColorMatrix
         values="0.364583 0.72 0.072 0 0 0.364583 0.72 0.072 0 0 0.364583 0.72 0.072 0 0 0 0 0 1 0 "
         id="feColorMatrix1063-96" />
    </filter>
    <clipPath
       clipPathUnits="userSpaceOnUse"
       id="clipPath25415-0">
      <path
         style="fill:none;stroke:#000000;stroke-width:0.26458332px;stroke-linecap:butt;stroke-linejoin:miter;stroke-opacity:1"
         d="m 293.83703,57.30042 -11.58211,8.054274 0.16626,13.257543 19.39934,4.656225 11.47232,-8.615749 -0.0565,-12.696074 z"
         id="path25417-1"
         inkscape:connector-curvature="0" />
    </clipPath>
    <filter
       style="color-interpolation-filters:sRGB"
       inkscape:label="Greyscale"
       id="filter1065-4-1">
      <feColorMatrix
         values="0.364583 0.72 0.072 0 0 0.364583 0.72 0.072 0 0 0.364583 0.72 0.072 0 0 0 0 0 1 0 "
         id="feColorMatrix1063-0-8" />
    </filter>
    <marker
       style="overflow:visible"
       overflow="visible"
       id="DotM-1"
       orient="auto"
       markerUnits="strokeWidth">
      <path
         style="fill-rule:evenodd;stroke:#000000;stroke-width:1.33333004"
         inkscape:connector-curvature="0"
         transform="matrix(0.4,0,0,0.4,2.96,0.4)"
         id="path73223-6"
         d="m -2.5,-1 c 0,2.76 -2.24,5 -5,5 -2.76,0 -5,-2.24 -5,-5 0,-2.76 2.24,-5 5,-5 2.76,0 5,2.24 5,5 z" />
    </marker>
    <marker
       style="overflow:visible"
       overflow="visible"
       id="marker11431"
       orient="auto"
       markerUnits="strokeWidth">
      <path
         style="fill-rule:evenodd;stroke:#000000;stroke-width:1.33333004"
         inkscape:connector-curvature="0"
         transform="matrix(0.4,0,0,0.4,2.96,0.4)"
         id="path11429"
         d="m -2.5,-1 c 0,2.76 -2.24,5 -5,5 -2.76,0 -5,-2.24 -5,-5 0,-2.76 2.24,-5 5,-5 2.76,0 5,2.24 5,5 z" />
    </marker>
    <marker
       inkscape:isstock="true"
       style="overflow:visible"
       id="marker26086-7"
       refX="0"
       refY="0"
       orient="auto"
       inkscape:stockid="Arrow1Lend">
      <path
         inkscape:connector-curvature="0"
         transform="matrix(-0.8,0,0,-0.8,-10,0)"
         style="fill:#000000;fill-opacity:1;fill-rule:evenodd;stroke:#000000;stroke-width:1.00000003pt;stroke-opacity:1"
         d="M 0,0 5,-5 -12.5,0 5,5 Z"
         id="path26084-6" />
    </marker>
    <clipPath
       id="clipPath29360-6-01"
       clipPathUnits="userSpaceOnUse">
      <path
         style="clip-rule:evenodd"
         inkscape:connector-curvature="0"
         id="path29358-4-0"
         d="m 0.085037,0.047939 h 22.68 v 19.32 h -22.68 z" />
    </clipPath>
    <clipPath
       clipPathUnits="userSpaceOnUse"
       id="clipPath25415-9-8">
      <path
         style="fill:none;stroke:#000000;stroke-width:0.26458332px;stroke-linecap:butt;stroke-linejoin:miter;stroke-opacity:1"
         d="m 293.83703,57.30042 -11.58211,8.054274 0.16626,13.257543 19.39934,4.656225 11.47232,-8.615749 -0.0565,-12.696074 z"
         id="path25417-8-89"
         inkscape:connector-curvature="0" />
    </clipPath>
    <filter
       style="color-interpolation-filters:sRGB"
       inkscape:label="Greyscale"
       id="filter1065-4-5-9">
      <feColorMatrix
         values="0.364583 0.72 0.072 0 0 0.364583 0.72 0.072 0 0 0.364583 0.72 0.072 0 0 0 0 0 1 0 "
         id="feColorMatrix1063-0-3-1" />
    </filter>
    <clipPath
       id="clipPath29360-0-5-6"
       clipPathUnits="userSpaceOnUse">
      <path
         style="clip-rule:evenodd"
         inkscape:connector-curvature="0"
         id="path29358-8-3-9"
         d="m 0.085037,0.047939 h 22.68 v 19.32 h -22.68 z" />
    </clipPath>
    <clipPath
       id="clipPath29360-6-1-7"
       clipPathUnits="userSpaceOnUse">
      <path
         style="clip-rule:evenodd"
         inkscape:connector-curvature="0"
         id="path29358-4-7-0"
         d="m 0.085037,0.047939 h 22.68 v 19.32 h -22.68 z" />
    </clipPath>
    <filter
       style="color-interpolation-filters:sRGB"
       inkscape:label="Greyscale"
       id="filter1065-0-0">
      <feColorMatrix
         values="0.364583 0.72 0.072 0 0 0.364583 0.72 0.072 0 0 0.364583 0.72 0.072 0 0 0 0 0 1 0 "
         id="feColorMatrix1063-93-8" />
    </filter>
    <clipPath
       id="p4d567e047f-7">
      <rect
         height="217.44"
         width="334.79999"
         x="54"
         y="34.560001"
         id="rect346-4" />
    </clipPath>
    <clipPath
       id="clipPath288">
      <rect
         height="217.44"
         width="334.79999"
         x="54"
         y="34.560001"
         id="rect286" />
    </clipPath>
    <clipPath
       id="p2418f61a26">
      <rect
         height="217.44"
         width="334.79999"
         x="54"
         y="34.560001"
         id="rect363" />
    </clipPath>
    <clipPath
       id="clipPath226">
      <rect
         height="217.44"
         width="334.79999"
         x="54"
         y="34.560001"
         id="rect224" />
    </clipPath>
    <clipPath
       id="p5b3c313fc4">
      <rect
         height="217.44"
         width="334.79999"
         x="54"
         y="34.560001"
         id="rect347" />
    </clipPath>
    <clipPath
       id="clipPath225">
      <rect
         height="217.44"
         width="334.79999"
         x="54"
         y="34.560001"
         id="rect223" />
    </clipPath>
    <clipPath
       id="p9f0a99fad9">
      <rect
         height="217.44"
         width="334.79999"
         x="54"
         y="34.560001"
         id="rect370" />
    </clipPath>
    <clipPath
       id="clipPath230">
      <rect
         height="217.44"
         width="334.79999"
         x="54"
         y="34.560001"
         id="rect228" />
    </clipPath>
    <clipPath
       id="p9be740db07-41">
      <rect
         height="217.44"
         width="334.79999"
         x="54"
         y="34.560001"
         id="rect374-4" />
    </clipPath>
    <clipPath
       id="clipPath357">
      <rect
         height="217.44"
         width="334.79999"
         x="54"
         y="34.560001"
         id="rect355" />
    </clipPath>
    <clipPath
       id="p5b3c313fc4-4">
      <rect
         height="217.44"
         width="334.79999"
         x="54"
         y="34.560001"
         id="rect347-7" />
    </clipPath>
    <clipPath
       id="clipPath225-8">
      <rect
         height="217.44"
         width="334.79999"
         x="54"
         y="34.560001"
         id="rect223-2" />
    </clipPath>
    <clipPath
       id="p5b3c313fc4-4-6">
      <rect
         height="217.44"
         width="334.79999"
         x="54"
         y="34.560001"
         id="rect347-7-4" />
    </clipPath>
    <clipPath
       id="clipPath388">
      <rect
         height="217.44"
         width="334.79999"
         x="54"
         y="34.560001"
         id="rect386" />
    </clipPath>
    <clipPath
       id="p5b3c313fc4-4-9">
      <rect
         height="217.44"
         width="334.79999"
         x="54"
         y="34.560001"
         id="rect347-7-5" />
    </clipPath>
    <clipPath
       id="clipPath388-4">
      <rect
         height="217.44"
         width="334.79999"
         x="54"
         y="34.560001"
         id="rect386-4" />
    </clipPath>
    <clipPath
       id="p5b3c313fc4-4-0">
      <rect
         height="217.44"
         width="334.79999"
         x="54"
         y="34.560001"
         id="rect347-7-3" />
    </clipPath>
    <clipPath
       id="clipPath859">
      <rect
         height="217.44"
         width="334.79999"
         x="54"
         y="34.560001"
         id="rect857" />
    </clipPath>
    <clipPath
       id="p9be740db07">
      <rect
         height="217.44"
         width="334.79999"
         x="54"
         y="34.560001"
         id="rect374" />
    </clipPath>
    <clipPath
       id="clipPath357-1">
      <rect
         height="217.44"
         width="334.79999"
         x="54"
         y="34.560001"
         id="rect355-0" />
    </clipPath>
    <clipPath
       id="p9be740db07-4">
      <rect
         height="217.44"
         width="334.79999"
         x="54"
         y="34.560001"
         id="rect374-1" />
    </clipPath>
    <clipPath
       id="clipPath364">
      <rect
         height="217.44"
         width="334.79999"
         x="54"
         y="34.560001"
         id="rect362" />
    </clipPath>
    <clipPath
       id="p9be740db07-3">
      <rect
         height="217.44"
         width="334.79999"
         x="54"
         y="34.560001"
         id="rect374-10" />
    </clipPath>
    <clipPath
       id="clipPath223">
      <rect
         height="217.44"
         width="334.79999"
         x="54"
         y="34.560001"
         id="rect221" />
    </clipPath>
    <clipPath
       id="p9be740db07-7">
      <rect
         height="217.44"
         width="334.79999"
         x="54"
         y="34.560001"
         id="rect374-9" />
    </clipPath>
    <clipPath
       id="clipPath227">
      <rect
         height="217.44"
         width="334.79999"
         x="54"
         y="34.560001"
         id="rect225" />
    </clipPath>
  </defs>
  <sodipodi:namedview
     id="base"
     pagecolor="#ffffff"
     bordercolor="#666666"
     borderopacity="1.0"
     inkscape:pageopacity="0.0"
     inkscape:pageshadow="2"
     inkscape:zoom="0.98994949"
     inkscape:cx="202.7068"
     inkscape:cy="5.9813808"
     inkscape:document-units="mm"
     inkscape:current-layer="layer1"
     showgrid="false"
     inkscape:window-width="686"
     inkscape:window-height="696"
     inkscape:window-x="671"
     inkscape:window-y="0"
     inkscape:window-maximized="0"
     fit-margin-top="2"
     fit-margin-right="2"
     fit-margin-bottom="2"
     fit-margin-left="2" />
  <metadata
     id="metadata1751">
    <rdf:RDF>
      <cc:Work
         rdf:about="">
        <dc:format>image/svg+xml</dc:format>
        <dc:type
           rdf:resource="http://purl.org/dc/dcmitype/StillImage" />
        <dc:title />
      </cc:Work>
    </rdf:RDF>
  </metadata>
  <g
     inkscape:label="Capa 1"
     inkscape:groupmode="layer"
     id="layer1"
     transform="translate(-34.03357,-15.673566)">
    <g
       id="g379">
      <text
         transform="rotate(-90)"
         id="text208-5"
         y="37.944908"
         x="-51.24564"
         style="font-style:normal;font-variant:normal;font-weight:normal;font-stretch:normal;font-size:2.82222223px;line-height:1.25;font-family:'Times New Roman';-inkscape-font-specification:'Times New Roman, ';letter-spacing:0px;word-spacing:0px;fill:#000000;fill-opacity:1;stroke:none;stroke-width:0.26458332"
         xml:space="preserve"><tspan
           style="stroke-width:0.26458332"
           y="37.944908"
           x="-51.24564"
           id="tspan206-0"
           sodipodi:role="line">Accuracy</tspan></text>
      <path
         d="m 45.5182,70.46767 h 75.75687 V 21.266429 H 45.5182 Z"
         style="fill:#ffffff;stroke-width:0.22627501;stroke-linecap:butt;stroke-linejoin:round"
         id="path9-6"
         inkscape:connector-curvature="0" />
      <path
         d="M 45.5182,70.46767 V 21.266429"
         style="fill:none;stroke:#000000;stroke-width:0.18102001;stroke-linecap:square;stroke-linejoin:miter"
         id="path249-9"
         inkscape:connector-curvature="0" />
      <path
         d="M 121.27507,70.46767 V 21.266429"
         style="fill:none;stroke:#000000;stroke-width:0.18102001;stroke-linecap:square;stroke-linejoin:miter"
         id="path252-2"
         inkscape:connector-curvature="0" />
      <path
         d="m 45.5182,70.46767 h 75.75687"
         style="fill:none;stroke:#000000;stroke-width:0.18102001;stroke-linecap:square;stroke-linejoin:miter"
         id="path255-8"
         inkscape:connector-curvature="0" />
      <path
         d="m 45.5182,21.266429 h 75.75687"
         style="fill:none;stroke:#000000;stroke-width:0.18102001;stroke-linecap:square;stroke-linejoin:miter"
         id="path258-7"
         inkscape:connector-curvature="0" />
      <path
         inkscape:connector-curvature="0"
         id="path308-4-0"
         style="opacity:0.8;fill:#ffffff;stroke:#cccccc;stroke-width:0.2911686;stroke-linecap:butt;stroke-linejoin:miter"
         d="m 47.39892,29.719215 h 20.71006 q 0.74934,0 0.74934,-0.452549 v -6.416311 q 0,-0.452551 -0.74934,-0.452551 H 47.39892 q -0.74934,0 -0.74934,0.452551 v 6.416311 q 0,0.452549 0.74934,0.452549 z" />
      <path
         inkscape:connector-curvature="0"
         id="path311-2-7"
         style="fill:none;stroke:#1f77b4;stroke-width:0.33941251;stroke-linecap:square;stroke-linejoin:round"
         d="m 47.55468,24.230278 h 4.5255" />
      <path
         inkscape:connector-curvature="0"
         id="path328-2-7"
         style="fill:none;stroke:#ff7f0e;stroke-width:0.33941251;stroke-linecap:square;stroke-linejoin:round"
         d="m 47.55468,27.551572 h 4.5255" />
      <text
         id="text186-3"
         y="76.845009"
         x="79.78669"
         style="font-style:normal;font-variant:normal;font-weight:normal;font-stretch:normal;font-size:2.82222223px;line-height:1.25;font-family:'Times New Roman';-inkscape-font-specification:'Times New Roman, ';letter-spacing:0px;word-spacing:0px;fill:#000000;fill-opacity:1;stroke:none;stroke-width:0.26458332"
         xml:space="preserve"><tspan
           style="stroke-width:0.26458332"
           y="76.845009"
           x="79.78669"
           id="tspan184-4"
           sodipodi:role="line">Epoch</tspan></text>
      <text
         id="text190-5"
         y="28.031252"
         x="53.499886"
         style="font-style:normal;font-variant:normal;font-weight:normal;font-stretch:normal;font-size:2.82222223px;line-height:1.25;font-family:'Times New Roman';-inkscape-font-specification:'Times New Roman, ';letter-spacing:0px;word-spacing:0px;fill:#000000;fill-opacity:1;stroke:none;stroke-width:0.26458332"
         xml:space="preserve"><tspan
           style="stroke-width:0.26458332"
           y="28.031252"
           x="53.499886"
           id="tspan188-1"
           sodipodi:role="line">Validation</tspan></text>
      <text
         id="text194-7"
         y="24.909882"
         x="53.218391"
         style="font-style:normal;font-variant:normal;font-weight:normal;font-stretch:normal;font-size:2.82222223px;line-height:1.25;font-family:'Times New Roman';-inkscape-font-specification:'Times New Roman, ';letter-spacing:0px;word-spacing:0px;fill:#000000;fill-opacity:1;stroke:none;stroke-width:0.26458332"
         xml:space="preserve"><tspan
           style="stroke-width:0.26458332"
           y="24.909882"
           x="53.218391"
           id="tspan192-5"
           sodipodi:role="line">Training</tspan></text>
      <text
         id="text198-1"
         y="19.878082"
         x="73.183861"
         style="font-style:normal;font-variant:normal;font-weight:normal;font-stretch:normal;font-size:2.82222223px;line-height:1.25;font-family:'Times New Roman';-inkscape-font-specification:'Times New Roman, ';letter-spacing:0px;word-spacing:0px;fill:#000000;fill-opacity:1;stroke:none;stroke-width:0.26458332"
         xml:space="preserve"><tspan
           style="font-size:3.17499995px;stroke-width:0.26458332"
           y="19.878082"
           x="73.183861"
           id="tspan196-1"
           sodipodi:role="line">Model accuracy</tspan></text>
      <path
         inkscape:connector-curvature="0"
         style="stroke:#000000;stroke-width:0.18093343;stroke-linecap:butt;stroke-linejoin:round"
         id="use15"
         d="m 48.96643,70.442029 v 0.791584" />
      <path
         style="stroke-width:0.02261668;stroke-linecap:butt;stroke-linejoin:round"
         inkscape:connector-curvature="0"
         id="use23"
         d="m 48.965723,72.241821 q -0.172099,0 -0.259032,0.169626 -0.08658,0.169272 -0.08658,0.509583 0,0.338897 0.08658,0.508522 0.08693,0.169625 0.259032,0.169625 0.173512,0 0.260091,-0.169625 0.08693,-0.169625 0.08693,-0.508522 0,-0.340311 -0.08693,-0.509583 -0.08658,-0.169626 -0.260091,-0.169626 z m 0,-0.176692 q 0.277407,0 0.423709,0.219454 0.146302,0.219099 0.146302,0.636447 0,0.416287 -0.146302,0.635741 -0.146302,0.219099 -0.423709,0.219099 -0.277055,0 -0.423356,-0.219099 -0.146302,-0.219454 -0.146302,-0.635741 0,-0.417348 0.146302,-0.636447 0.146301,-0.219454 0.423356,-0.219454 z" />
      <path
         inkscape:connector-curvature="0"
         style="stroke:#000000;stroke-width:0.18093343;stroke-linecap:butt;stroke-linejoin:round"
         id="use29"
         d="m 62.204304,70.442029 v 0.791584" />
      <path
         style="stroke-width:0.02261668;stroke-linecap:butt;stroke-linejoin:round"
         inkscape:connector-curvature="0"
         id="use37"
         d="m 61.729,72.094813 h 0.875689 v 0.188001 h -0.671433 v 0.40392 q 0.04842,-0.0166 0.09683,-0.02473 0.04877,-0.0081 0.09753,-0.0081 0.275995,0 0.437138,0.151249 0.161497,0.15125 0.161497,0.409575 0,0.266099 -0.165738,0.413812 -0.165737,0.147364 -0.467176,0.147364 -0.103895,0 -0.211677,-0.01766 -0.107429,-0.01766 -0.222281,-0.05301 v -0.224401 q 0.0993,0.05406 0.205319,0.08057 0.106016,0.0265 0.224045,0.0265 0.191181,0 0.302498,-0.100362 0.11167,-0.100362 0.11167,-0.272814 0,-0.172099 -0.11167,-0.27246 -0.111317,-0.100715 -0.302498,-0.100715 -0.08941,0 -0.178459,0.01979 -0.0887,0.01979 -0.181287,0.06184 z" />
      <path
         inkscape:connector-curvature="0"
         style="stroke:#000000;stroke-width:0.18093343;stroke-linecap:butt;stroke-linejoin:round"
         id="use43"
         d="m 75.442176,70.442029 v 0.791584" />
      <path
         style="stroke-width:0.02261668;stroke-linecap:butt;stroke-linejoin:round"
         inkscape:connector-curvature="0"
         id="use51"
         d="M 74.283779,73.556063 H 74.64812 V 72.29801 l -0.396497,0.07951 v -0.203195 l 0.394378,-0.07951 h 0.222985 v 1.46125 h 0.364341 v 0.187648 h -0.949548 z" />
      <path
         style="stroke-width:0.02261668;stroke-linecap:butt;stroke-linejoin:round"
         inkscape:connector-curvature="0"
         id="use53"
         d="m 76.160921,72.241821 q -0.1721,0 -0.259031,0.169626 -0.08658,0.169272 -0.08658,0.509583 0,0.338897 0.08658,0.508522 0.08693,0.169625 0.259031,0.169625 0.173513,0 0.260092,-0.169625 0.08693,-0.169625 0.08693,-0.508522 0,-0.340311 -0.08693,-0.509583 -0.08658,-0.169626 -0.260092,-0.169626 z m 0,-0.176692 q 0.277407,0 0.42371,0.219454 0.1463,0.219099 0.1463,0.636447 0,0.416287 -0.1463,0.635741 -0.146303,0.219099 -0.42371,0.219099 -0.277054,0 -0.423357,-0.219099 -0.146301,-0.219454 -0.146301,-0.635741 0,-0.417348 0.146301,-0.636447 0.146303,-0.219454 0.423357,-0.219454 z" />
      <path
         inkscape:connector-curvature="0"
         style="stroke:#000000;stroke-width:0.18093343;stroke-linecap:butt;stroke-linejoin:round"
         id="use59"
         d="m 88.680053,70.442029 v 0.791584" />
      <path
         style="stroke-width:0.02261668;stroke-linecap:butt;stroke-linejoin:round"
         inkscape:connector-curvature="0"
         id="use64"
         d="m 87.521654,73.556063 h 0.364341 V 72.29801 l -0.396497,0.07951 v -0.203195 l 0.394378,-0.07951 h 0.222985 v 1.46125 h 0.364341 v 0.187648 h -0.949548 z" />
      <path
         style="stroke-width:0.02261668;stroke-linecap:butt;stroke-linejoin:round"
         inkscape:connector-curvature="0"
         id="use66"
         d="m 88.924198,72.094813 h 0.875691 v 0.188001 h -0.671433 v 0.40392 q 0.04842,-0.0166 0.09683,-0.02473 0.04877,-0.0081 0.09753,-0.0081 0.275994,0 0.437137,0.151249 0.161499,0.15125 0.161499,0.409575 0,0.266099 -0.165739,0.413812 -0.165737,0.147364 -0.467175,0.147364 -0.103896,0 -0.211678,-0.01766 -0.107429,-0.01766 -0.222279,-0.05301 v -0.224401 q 0.0993,0.05406 0.205316,0.08057 0.106016,0.0265 0.224048,0.0265 0.191181,0 0.302498,-0.100362 0.111669,-0.100362 0.111669,-0.272814 0,-0.172099 -0.111669,-0.27246 -0.111317,-0.100715 -0.302498,-0.100715 -0.08941,0 -0.178461,0.01979 -0.0887,0.01979 -0.181287,0.06184 z" />
      <path
         inkscape:connector-curvature="0"
         style="stroke:#000000;stroke-width:0.18093343;stroke-linecap:butt;stroke-linejoin:round"
         id="use72"
         d="m 101.91793,70.442029 v 0.791584" />
      <path
         style="stroke-width:0.02261668;stroke-linecap:butt;stroke-linejoin:round"
         inkscape:connector-curvature="0"
         id="use80"
         d="m 100.9129,73.556063 h 0.77851 v 0.187648 h -1.04673 v -0.187648 q 0.12686,-0.131459 0.34596,-0.352678 0.21946,-0.221573 0.27564,-0.28589 0.10708,-0.120151 0.14949,-0.203551 0.0428,-0.0834 0.0428,-0.163971 0,-0.131459 -0.0922,-0.21415 -0.0922,-0.08305 -0.24031,-0.08305 -0.10495,0 -0.22157,0.0364 -0.11626,0.0364 -0.24878,0.110609 V 72.17432 q 0.13463,-0.05407 0.25161,-0.08163 0.11732,-0.02757 0.21451,-0.02757 0.2562,0 0.40851,0.12828 0.1523,0.127926 0.1523,0.342077 0,0.101775 -0.0382,0.192949 -0.0378,0.09082 -0.13853,0.214503 -0.0276,0.03216 -0.17563,0.185175 -0.14771,0.153017 -0.41734,0.42795 z" />
      <path
         style="stroke-width:0.02261668;stroke-linecap:butt;stroke-linejoin:round"
         inkscape:connector-curvature="0"
         id="use82"
         d="m 102.63667,72.241821 q -0.1721,0 -0.25903,0.169626 -0.0866,0.169272 -0.0866,0.509583 0,0.338897 0.0866,0.508522 0.0869,0.169625 0.25903,0.169625 0.17351,0 0.26009,-0.169625 0.0869,-0.169625 0.0869,-0.508522 0,-0.340311 -0.0869,-0.509583 -0.0866,-0.169626 -0.26009,-0.169626 z m 0,-0.176692 q 0.27741,0 0.42371,0.219454 0.1463,0.219099 0.1463,0.636447 0,0.416287 -0.1463,0.635741 -0.1463,0.219099 -0.42371,0.219099 -0.27706,0 -0.42336,-0.219099 -0.1463,-0.219454 -0.1463,-0.635741 0,-0.417348 0.1463,-0.636447 0.1463,-0.219454 0.42336,-0.219454 z" />
      <path
         inkscape:connector-curvature="0"
         style="stroke:#000000;stroke-width:0.18093343;stroke-linecap:butt;stroke-linejoin:round"
         id="use88"
         d="m 115.1558,70.442029 v 0.791584" />
      <path
         style="stroke-width:0.02261668;stroke-linecap:butt;stroke-linejoin:round"
         inkscape:connector-curvature="0"
         id="use93"
         d="m 114.15077,73.556063 h 0.77851 v 0.187648 h -1.04673 v -0.187648 q 0.12687,-0.131459 0.34596,-0.352678 0.21946,-0.221573 0.27565,-0.28589 0.10707,-0.120151 0.14948,-0.203551 0.0428,-0.0834 0.0428,-0.163971 0,-0.131459 -0.0922,-0.21415 -0.0922,-0.08305 -0.2403,-0.08305 -0.10496,0 -0.22157,0.0364 -0.11627,0.0364 -0.24879,0.110609 V 72.17432 q 0.13464,-0.05407 0.25161,-0.08163 0.11733,-0.02757 0.2145,-0.02757 0.25621,0 0.40852,0.12828 0.15231,0.127926 0.15231,0.342077 0,0.101775 -0.0382,0.192949 -0.0378,0.09082 -0.13853,0.214503 -0.0276,0.03216 -0.17563,0.185175 -0.14772,0.153017 -0.41735,0.42795 z" />
      <path
         style="stroke-width:0.02261668;stroke-linecap:butt;stroke-linejoin:round"
         inkscape:connector-curvature="0"
         id="use95"
         d="m 115.39994,72.094813 h 0.87569 v 0.188001 h -0.67142 v 0.40392 q 0.0484,-0.0166 0.0968,-0.02473 0.0488,-0.0081 0.0975,-0.0081 0.27599,0 0.43713,0.151249 0.1615,0.15125 0.1615,0.409575 0,0.266099 -0.16574,0.413812 -0.16573,0.147364 -0.46717,0.147364 -0.1039,0 -0.21168,-0.01766 -0.10743,-0.01766 -0.22228,-0.05301 v -0.224401 q 0.0993,0.05406 0.20532,0.08057 0.10601,0.0265 0.22405,0.0265 0.19118,0 0.30249,-0.100362 0.11167,-0.100362 0.11167,-0.272814 0,-0.172099 -0.11167,-0.27246 -0.11131,-0.100715 -0.30249,-0.100715 -0.0894,0 -0.17847,0.01979 -0.0887,0.01979 -0.18128,0.06184 z" />
      <path
         inkscape:connector-curvature="0"
         style="stroke:#000000;stroke-width:0.18093343;stroke-linecap:butt;stroke-linejoin:round"
         id="use125"
         d="M 45.524582,67.348187 H 44.732998" />
      <path
         style="stroke-width:0.02261668;stroke-linecap:butt;stroke-linejoin:round"
         inkscape:connector-curvature="0"
         id="use134"
         d="m 39.624456,66.705555 q -0.172099,0 -0.259032,0.169625 -0.08658,0.169272 -0.08658,0.509583 0,0.338897 0.08658,0.508522 0.08693,0.169625 0.259032,0.169625 0.173512,0 0.260091,-0.169625 0.08693,-0.169625 0.08693,-0.508522 0,-0.340311 -0.08693,-0.509583 -0.08658,-0.169625 -0.260091,-0.169625 z m 0,-0.176693 q 0.277408,0 0.423709,0.219454 0.146302,0.219099 0.146302,0.636447 0,0.416287 -0.146302,0.635741 -0.146301,0.219099 -0.423709,0.219099 -0.277055,0 -0.423356,-0.219099 -0.146302,-0.219454 -0.146302,-0.635741 0,-0.417348 0.146302,-0.636447 0.146301,-0.219454 0.423356,-0.219454 z" />
      <path
         style="stroke-width:0.02261668;stroke-linecap:butt;stroke-linejoin:round"
         inkscape:connector-curvature="0"
         id="use136"
         d="m 40.586327,67.926857 h 0.233235 v 0.280587 h -0.233235 z" />
      <path
         style="stroke-width:0.02261668;stroke-linecap:butt;stroke-linejoin:round"
         inkscape:connector-curvature="0"
         id="use138"
         d="m 41.810234,67.294296 q -0.150188,0 -0.238182,0.102836 -0.08764,0.10248 -0.08764,0.281295 0,0.177753 0.08764,0.281294 0.08799,0.103189 0.238182,0.103189 0.150189,0 0.237829,-0.103189 0.08764,-0.103541 0.08764,-0.281294 0,-0.178815 -0.08764,-0.281295 -0.08764,-0.102836 -0.237829,-0.102836 z m 0.442792,-0.699351 v 0.203198 q -0.08411,-0.03958 -0.169624,-0.06043 -0.08552,-0.0212 -0.169626,-0.0212 -0.220866,0 -0.337483,0.149131 -0.116264,0.149127 -0.132873,0.450564 0.06502,-0.09612 0.163264,-0.147361 0.0986,-0.05124 0.216625,-0.05124 0.24843,0 0.392612,0.150897 0.144181,0.150541 0.144181,0.409927 0,0.254085 -0.150188,0.407806 -0.15019,0.15337 -0.39968,0.15337 -0.286242,0 -0.437491,-0.219099 -0.151249,-0.219454 -0.151249,-0.635741 0,-0.390843 0.185528,-0.623372 0.185527,-0.232529 0.49792,-0.232529 0.0841,0 0.169625,0.0166 0.08552,0.0166 0.178459,0.04947 z" />
      <path
         style="stroke-width:0.02261668;stroke-linecap:butt;stroke-linejoin:round"
         inkscape:connector-curvature="0"
         id="use140"
         d="m 42.746662,66.558546 h 0.875689 v 0.188003 h -0.671432 v 0.403919 q 0.04842,-0.0166 0.09683,-0.02473 0.04877,-0.0081 0.09753,-0.0081 0.275994,0 0.437138,0.151249 0.161497,0.151249 0.161497,0.409574 0,0.266099 -0.165738,0.413813 -0.165738,0.147363 -0.467175,0.147363 -0.103896,0 -0.211678,-0.01766 -0.10743,-0.01766 -0.22228,-0.05301 v -0.224419 q 0.0993,0.05407 0.205317,0.08057 0.106016,0.0265 0.224047,0.0265 0.191181,0 0.302497,-0.100362 0.11167,-0.100361 0.11167,-0.272813 0,-0.1721 -0.11167,-0.272461 -0.111316,-0.100715 -0.302497,-0.100715 -0.08941,0 -0.17846,0.01979 -0.0887,0.01979 -0.181287,0.06184 z" />
      <path
         inkscape:connector-curvature="0"
         style="stroke:#000000;stroke-width:0.18093343;stroke-linecap:butt;stroke-linejoin:round"
         id="use146"
         d="M 45.524582,60.275845 H 44.732998" />
      <path
         style="stroke-width:0.02261668;stroke-linecap:butt;stroke-linejoin:round"
         inkscape:connector-curvature="0"
         id="use154"
         d="m 39.624456,59.633213 q -0.172099,0 -0.259032,0.169624 -0.08658,0.169273 -0.08658,0.509584 0,0.338897 0.08658,0.508522 0.08693,0.169626 0.259032,0.169626 0.173512,0 0.260091,-0.169626 0.08693,-0.169625 0.08693,-0.508522 0,-0.340311 -0.08693,-0.509584 -0.08658,-0.169624 -0.260091,-0.169624 z m 0,-0.176693 q 0.277408,0 0.423709,0.219454 0.146302,0.219099 0.146302,0.636447 0,0.416287 -0.146302,0.635741 -0.146301,0.219099 -0.423709,0.219099 -0.277055,0 -0.423356,-0.219099 -0.146302,-0.219454 -0.146302,-0.635741 0,-0.417348 0.146302,-0.636447 0.146301,-0.219454 0.423356,-0.219454 z" />
      <path
         style="stroke-width:0.02261668;stroke-linecap:butt;stroke-linejoin:round"
         inkscape:connector-curvature="0"
         id="use156"
         d="m 40.586327,60.854513 h 0.233235 v 0.28059 h -0.233235 z" />
      <path
         style="stroke-width:0.02261668;stroke-linecap:butt;stroke-linejoin:round"
         inkscape:connector-curvature="0"
         id="use158"
         d="m 41.249058,59.486205 h 1.060157 v 0.09506 l -0.598636,1.553836 h -0.23288 l 0.563296,-1.460898 h -0.791937 z" />
      <path
         style="stroke-width:0.02261668;stroke-linecap:butt;stroke-linejoin:round"
         inkscape:connector-curvature="0"
         id="use160"
         d="m 43.221259,59.633213 q -0.172099,0 -0.259032,0.169624 -0.08658,0.169273 -0.08658,0.509584 0,0.338897 0.08658,0.508522 0.08693,0.169626 0.259032,0.169626 0.173512,0 0.260091,-0.169626 0.08693,-0.169625 0.08693,-0.508522 0,-0.340311 -0.08693,-0.509584 -0.08658,-0.169624 -0.260091,-0.169624 z m 0,-0.176693 q 0.277408,0 0.423709,0.219454 0.146302,0.219099 0.146302,0.636447 0,0.416287 -0.146302,0.635741 -0.146301,0.219099 -0.423709,0.219099 -0.277055,0 -0.423356,-0.219099 -0.146302,-0.219454 -0.146302,-0.635741 0,-0.417348 0.146302,-0.636447 0.146301,-0.219454 0.423356,-0.219454 z" />
      <path
         inkscape:connector-curvature="0"
         style="stroke:#000000;stroke-width:0.18093343;stroke-linecap:butt;stroke-linejoin:round"
         id="use166"
         d="M 45.524582,53.203504 H 44.732998" />
      <path
         style="stroke-width:0.02261668;stroke-linecap:butt;stroke-linejoin:round"
         inkscape:connector-curvature="0"
         id="use171"
         d="m 39.624456,52.56087 q -0.172099,0 -0.259032,0.169626 -0.08658,0.169272 -0.08658,0.509583 0,0.338897 0.08658,0.508523 0.08693,0.169625 0.259032,0.169625 0.173512,0 0.260091,-0.169625 0.08693,-0.169626 0.08693,-0.508523 0,-0.340311 -0.08693,-0.509583 -0.08658,-0.169626 -0.260091,-0.169626 z m 0,-0.176692 q 0.277408,0 0.423709,0.219454 0.146302,0.219099 0.146302,0.636447 0,0.416287 -0.146302,0.635741 -0.146301,0.2191 -0.423709,0.2191 -0.277055,0 -0.423356,-0.2191 -0.146302,-0.219454 -0.146302,-0.635741 0,-0.417348 0.146302,-0.636447 0.146301,-0.219454 0.423356,-0.219454 z" />
      <path
         style="stroke-width:0.02261668;stroke-linecap:butt;stroke-linejoin:round"
         inkscape:connector-curvature="0"
         id="use173"
         d="m 40.586327,53.782171 h 0.233235 v 0.28059 h -0.233235 z" />
      <path
         style="stroke-width:0.02261668;stroke-linecap:butt;stroke-linejoin:round"
         inkscape:connector-curvature="0"
         id="use175"
         d="m 41.249058,52.413862 h 1.060157 v 0.09506 l -0.598636,1.553836 h -0.23288 l 0.563296,-1.460898 h -0.791937 z" />
      <path
         style="stroke-width:0.02261668;stroke-linecap:butt;stroke-linejoin:round"
         inkscape:connector-curvature="0"
         id="use177"
         d="m 42.746662,52.413862 h 0.875689 v 0.188001 h -0.671432 v 0.403921 q 0.04842,-0.0166 0.09683,-0.02473 0.04877,-0.0081 0.09753,-0.0081 0.275994,0 0.437138,0.151249 0.161497,0.15125 0.161497,0.409575 0,0.266099 -0.165738,0.413813 -0.165738,0.147364 -0.467175,0.147364 -0.103896,0 -0.211678,-0.01766 -0.10743,-0.01766 -0.22228,-0.05301 v -0.2244 q 0.0993,0.05406 0.205317,0.08057 0.106016,0.0265 0.224047,0.0265 0.191181,0 0.302497,-0.100361 0.11167,-0.100362 0.11167,-0.272815 0,-0.172099 -0.11167,-0.27246 -0.111316,-0.100715 -0.302497,-0.100715 -0.08941,0 -0.17846,0.01979 -0.0887,0.01979 -0.181287,0.06184 z" />
      <path
         inkscape:connector-curvature="0"
         style="stroke:#000000;stroke-width:0.18093343;stroke-linecap:butt;stroke-linejoin:round"
         id="use183"
         d="M 45.524582,46.131161 H 44.732998" />
      <path
         style="stroke-width:0.02261668;stroke-linecap:butt;stroke-linejoin:round"
         inkscape:connector-curvature="0"
         id="use191"
         d="m 39.624456,45.488531 q -0.172099,0 -0.259032,0.169626 -0.08658,0.169272 -0.08658,0.509583 0,0.338897 0.08658,0.508522 0.08693,0.169625 0.259032,0.169625 0.173512,0 0.260091,-0.169625 0.08693,-0.169625 0.08693,-0.508522 0,-0.340311 -0.08693,-0.509583 -0.08658,-0.169626 -0.260091,-0.169626 z m 0,-0.176692 q 0.277408,0 0.423709,0.219454 0.146302,0.219098 0.146302,0.636447 0,0.416287 -0.146302,0.635741 -0.146301,0.219099 -0.423709,0.219099 -0.277055,0 -0.423356,-0.219099 -0.146302,-0.219454 -0.146302,-0.635741 0,-0.417349 0.146302,-0.636447 0.146301,-0.219454 0.423356,-0.219454 z" />
      <path
         style="stroke-width:0.02261668;stroke-linecap:butt;stroke-linejoin:round"
         inkscape:connector-curvature="0"
         id="use193"
         d="m 40.586327,46.709832 h 0.233235 v 0.280589 h -0.233235 z" />
      <path
         style="stroke-width:0.02261668;stroke-linecap:butt;stroke-linejoin:round"
         inkscape:connector-curvature="0"
         id="use195"
         d="m 41.782317,46.207319 q -0.159024,0 -0.250197,0.08517 -0.09082,0.08516 -0.09082,0.233942 0,0.149128 0.09082,0.234293 0.09117,0.08517 0.250197,0.08517 0.159023,0 0.25055,-0.08552 0.09188,-0.08587 0.09188,-0.233941 0,-0.148777 -0.09117,-0.233942 -0.09082,-0.08517 -0.251257,-0.08517 z m -0.222987,-0.09471 q -0.143474,-0.03534 -0.223693,-0.133581 -0.07986,-0.09859 -0.07986,-0.239946 0,-0.197544 0.140647,-0.312394 0.141001,-0.114851 0.385897,-0.114851 0.246309,0 0.386604,0.114851 0.140294,0.11485 0.140294,0.312394 0,0.141354 -0.08022,0.239946 -0.07987,0.09824 -0.222279,0.133581 0.161143,0.03746 0.250904,0.147009 0.09011,0.109195 0.09011,0.266806 0,0.239948 -0.146302,0.368227 -0.146301,0.127927 -0.419115,0.127927 -0.272461,0 -0.419116,-0.127927 -0.146301,-0.128279 -0.146301,-0.368227 0,-0.157611 0.09047,-0.266806 0.09082,-0.109551 0.251963,-0.147009 z M 41.4777,45.760284 q 0,0.127925 0.07986,0.199663 0.08022,0.07174 0.224754,0.07174 0.143828,0 0.224753,-0.07174 0.08128,-0.07174 0.08128,-0.199663 0,-0.128279 -0.08128,-0.200017 -0.08092,-0.07174 -0.224753,-0.07174 -0.144535,0 -0.224754,0.07174 -0.07986,0.07174 -0.07986,0.200017 z" />
      <path
         style="stroke-width:0.02261668;stroke-linecap:butt;stroke-linejoin:round"
         inkscape:connector-curvature="0"
         id="use197"
         d="m 43.221259,45.488531 q -0.172099,0 -0.259032,0.169626 -0.08658,0.169272 -0.08658,0.509583 0,0.338897 0.08658,0.508522 0.08693,0.169625 0.259032,0.169625 0.173512,0 0.260091,-0.169625 0.08693,-0.169625 0.08693,-0.508522 0,-0.340311 -0.08693,-0.509583 -0.08658,-0.169626 -0.260091,-0.169626 z m 0,-0.176692 q 0.277408,0 0.423709,0.219454 0.146302,0.219098 0.146302,0.636447 0,0.416287 -0.146302,0.635741 -0.146301,0.219099 -0.423709,0.219099 -0.277055,0 -0.423356,-0.219099 -0.146302,-0.219454 -0.146302,-0.635741 0,-0.417349 0.146302,-0.636447 0.146301,-0.219454 0.423356,-0.219454 z" />
      <path
         inkscape:connector-curvature="0"
         style="stroke:#000000;stroke-width:0.18093343;stroke-linecap:butt;stroke-linejoin:round"
         id="use203"
         d="M 45.524582,39.058822 H 44.732998" />
      <path
         style="stroke-width:0.02261668;stroke-linecap:butt;stroke-linejoin:round"
         inkscape:connector-curvature="0"
         id="use208"
         d="m 39.624456,38.416191 q -0.172099,0 -0.259032,0.169625 -0.08658,0.169271 -0.08658,0.509581 0,0.338898 0.08658,0.508523 0.08693,0.169625 0.259032,0.169625 0.173512,0 0.260091,-0.169625 0.08693,-0.169625 0.08693,-0.508523 0,-0.34031 -0.08693,-0.509581 -0.08658,-0.169625 -0.260091,-0.169625 z m 0,-0.176693 q 0.277408,0 0.423709,0.219452 0.146302,0.2191 0.146302,0.636447 0,0.41629 -0.146302,0.635742 -0.146301,0.219099 -0.423709,0.219099 -0.277055,0 -0.423356,-0.219099 -0.146302,-0.219452 -0.146302,-0.635742 0,-0.417347 0.146302,-0.636447 0.146301,-0.219452 0.423356,-0.219452 z" />
      <path
         style="stroke-width:0.02261668;stroke-linecap:butt;stroke-linejoin:round"
         inkscape:connector-curvature="0"
         id="use210"
         d="m 40.586327,39.637492 h 0.233235 v 0.280587 h -0.233235 z" />
      <path
         style="stroke-width:0.02261668;stroke-linecap:butt;stroke-linejoin:round"
         inkscape:connector-curvature="0"
         id="use212"
         d="m 41.782317,39.134977 q -0.159024,0 -0.250197,0.08517 -0.09082,0.08517 -0.09082,0.233942 0,0.149128 0.09082,0.234296 0.09117,0.08516 0.250197,0.08516 0.159023,0 0.25055,-0.08552 0.09188,-0.08587 0.09188,-0.233941 0,-0.148774 -0.09117,-0.233942 -0.09082,-0.08517 -0.251257,-0.08517 z m -0.222987,-0.09471 q -0.143474,-0.03534 -0.223693,-0.133578 -0.07986,-0.09859 -0.07986,-0.23995 0,-0.197543 0.140647,-0.312392 0.141001,-0.114851 0.385897,-0.114851 0.246309,0 0.386604,0.114851 0.140294,0.114849 0.140294,0.312392 0,0.141355 -0.08022,0.23995 -0.07987,0.09824 -0.222279,0.133578 0.161143,0.03746 0.250904,0.147009 0.09011,0.109196 0.09011,0.266806 0,0.23995 -0.146302,0.368227 -0.146301,0.127927 -0.419115,0.127927 -0.272461,0 -0.419116,-0.127927 -0.146301,-0.128277 -0.146301,-0.368227 0,-0.15761 0.09047,-0.266806 0.09082,-0.109551 0.251963,-0.147009 z M 41.4777,38.687943 q 0,0.127924 0.07986,0.199661 0.08022,0.07174 0.224754,0.07174 0.143828,0 0.224753,-0.07174 0.08128,-0.07174 0.08128,-0.199661 0,-0.12828 -0.08128,-0.200018 -0.08092,-0.07174 -0.224753,-0.07174 -0.144535,0 -0.224754,0.07174 -0.07986,0.07174 -0.07986,0.200018 z" />
      <path
         style="stroke-width:0.02261668;stroke-linecap:butt;stroke-linejoin:round"
         inkscape:connector-curvature="0"
         id="use214"
         d="m 42.746662,38.269181 h 0.875689 v 0.188003 h -0.671432 v 0.403918 q 0.04842,-0.0166 0.09683,-0.02473 0.04877,-0.0081 0.09753,-0.0081 0.275994,0 0.437138,0.151249 0.161497,0.151249 0.161497,0.409574 0,0.266099 -0.165738,0.413813 -0.165738,0.147364 -0.467175,0.147364 -0.103896,0 -0.211678,-0.01766 -0.10743,-0.01766 -0.22228,-0.05301 v -0.2244 q 0.0993,0.05407 0.205317,0.08057 0.106016,0.0265 0.224047,0.0265 0.191181,0 0.302497,-0.100361 0.11167,-0.100362 0.11167,-0.272814 0,-0.172099 -0.11167,-0.272461 -0.111316,-0.100715 -0.302497,-0.100715 -0.08941,0 -0.17846,0.01979 -0.0887,0.01979 -0.181287,0.06184 z" />
      <path
         inkscape:connector-curvature="0"
         style="stroke:#000000;stroke-width:0.18093343;stroke-linecap:butt;stroke-linejoin:round"
         id="use220"
         d="M 45.524582,31.986481 H 44.732998" />
      <path
         style="stroke-width:0.02261668;stroke-linecap:butt;stroke-linejoin:round"
         inkscape:connector-curvature="0"
         id="use228"
         d="m 39.624456,31.343849 q -0.172099,0 -0.259032,0.169625 -0.08658,0.169272 -0.08658,0.509582 0,0.338897 0.08658,0.508522 0.08693,0.169626 0.259032,0.169626 0.173512,0 0.260091,-0.169626 0.08693,-0.169625 0.08693,-0.508522 0,-0.34031 -0.08693,-0.509582 -0.08658,-0.169625 -0.260091,-0.169625 z m 0,-0.176693 q 0.277408,0 0.423709,0.219453 0.146302,0.219099 0.146302,0.636447 0,0.416289 -0.146302,0.635741 -0.146301,0.219099 -0.423709,0.219099 -0.277055,0 -0.423356,-0.219099 -0.146302,-0.219452 -0.146302,-0.635741 0,-0.417348 0.146302,-0.636447 0.146301,-0.219453 0.423356,-0.219453 z" />
      <path
         style="stroke-width:0.02261668;stroke-linecap:butt;stroke-linejoin:round"
         inkscape:connector-curvature="0"
         id="use230"
         d="m 40.586327,32.56515 h 0.233235 v 0.280588 h -0.233235 z" />
      <path
         style="stroke-width:0.02261668;stroke-linecap:butt;stroke-linejoin:round"
         inkscape:connector-curvature="0"
         id="use232"
         d="m 41.311961,32.81146 v -0.203197 q 0.08411,0.03993 0.169978,0.06078 0.08623,0.02085 0.169271,0.02085 0.220867,0 0.337131,-0.148423 0.116617,-0.148421 0.133226,-0.451273 -0.06396,0.09506 -0.162557,0.145948 -0.09824,0.05089 -0.217333,0.05089 -0.247369,0 -0.391551,-0.149482 -0.144181,-0.149836 -0.144181,-0.409574 0,-0.253731 0.150189,-0.4071 0.150189,-0.153723 0.399679,-0.153723 0.286242,0 0.436784,0.219453 0.150896,0.219098 0.150896,0.636447 0,0.389784 -0.185174,0.622312 -0.18482,0.232528 -0.497214,0.232528 -0.08411,0 -0.170331,-0.01661 -0.08587,-0.01661 -0.178813,-0.04983 z m 0.443852,-0.698997 q 0.150189,0 0.237828,-0.102482 0.08799,-0.102835 0.08799,-0.282001 0,-0.177754 -0.08799,-0.280942 -0.08764,-0.103189 -0.237828,-0.103189 -0.150189,0 -0.237829,0.103189 -0.08764,0.103188 -0.08764,0.280942 0,0.179166 0.08764,0.282001 0.08764,0.102482 0.237829,0.102482 z" />
      <path
         style="stroke-width:0.02261668;stroke-linecap:butt;stroke-linejoin:round"
         inkscape:connector-curvature="0"
         id="use234"
         d="m 43.221259,31.343849 q -0.172099,0 -0.259032,0.169625 -0.08658,0.169272 -0.08658,0.509582 0,0.338897 0.08658,0.508522 0.08693,0.169626 0.259032,0.169626 0.173512,0 0.260091,-0.169626 0.08693,-0.169625 0.08693,-0.508522 0,-0.34031 -0.08693,-0.509582 -0.08658,-0.169625 -0.260091,-0.169625 z m 0,-0.176693 q 0.277408,0 0.423709,0.219453 0.146302,0.219099 0.146302,0.636447 0,0.416289 -0.146302,0.635741 -0.146301,0.219099 -0.423709,0.219099 -0.277055,0 -0.423356,-0.219099 -0.146302,-0.219452 -0.146302,-0.635741 0,-0.417348 0.146302,-0.636447 0.146301,-0.219453 0.423356,-0.219453 z" />
      <path
         inkscape:connector-curvature="0"
         style="stroke:#000000;stroke-width:0.18093343;stroke-linecap:butt;stroke-linejoin:round"
         id="use240"
         d="M 45.524582,24.91414 H 44.732998" />
      <path
         style="stroke-width:0.02261668;stroke-linecap:butt;stroke-linejoin:round"
         inkscape:connector-curvature="0"
         id="use245"
         d="m 39.624456,24.271508 q -0.172099,0 -0.259032,0.169625 -0.08658,0.169272 -0.08658,0.509582 0,0.338897 0.08658,0.508522 0.08693,0.169625 0.259032,0.169625 0.173512,0 0.260091,-0.169625 0.08693,-0.169625 0.08693,-0.508522 0,-0.34031 -0.08693,-0.509582 -0.08658,-0.169625 -0.260091,-0.169625 z m 0,-0.176693 q 0.277408,0 0.423709,0.219453 0.146302,0.219098 0.146302,0.636447 0,0.416288 -0.146302,0.635741 -0.146301,0.219099 -0.423709,0.219099 -0.277055,0 -0.423356,-0.219099 -0.146302,-0.219453 -0.146302,-0.635741 0,-0.417349 0.146302,-0.636447 0.146301,-0.219453 0.423356,-0.219453 z" />
      <path
         style="stroke-width:0.02261668;stroke-linecap:butt;stroke-linejoin:round"
         inkscape:connector-curvature="0"
         id="use247"
         d="m 40.586327,25.492809 h 0.233235 v 0.280588 h -0.233235 z" />
      <path
         style="stroke-width:0.02261668;stroke-linecap:butt;stroke-linejoin:round"
         inkscape:connector-curvature="0"
         id="use249"
         d="m 41.311961,25.739118 v -0.203196 q 0.08411,0.03993 0.169978,0.06078 0.08623,0.02085 0.169271,0.02085 0.220867,0 0.337131,-0.148422 0.116617,-0.148422 0.133226,-0.451274 -0.06396,0.09506 -0.162557,0.145949 -0.09824,0.05089 -0.217333,0.05089 -0.247369,0 -0.391551,-0.149482 -0.144181,-0.149836 -0.144181,-0.409574 0,-0.253731 0.150189,-0.4071 0.150189,-0.153723 0.399679,-0.153723 0.286242,0 0.436784,0.219453 0.150896,0.219098 0.150896,0.636447 0,0.389784 -0.185174,0.622312 -0.18482,0.232528 -0.497214,0.232528 -0.08411,0 -0.170331,-0.01661 -0.08587,-0.01661 -0.178813,-0.04983 z m 0.443852,-0.698996 q 0.150189,0 0.237828,-0.102482 0.08799,-0.102835 0.08799,-0.282002 0,-0.177753 -0.08799,-0.280941 -0.08764,-0.103189 -0.237828,-0.103189 -0.150189,0 -0.237829,0.103189 -0.08764,0.103188 -0.08764,0.280941 0,0.179167 0.08764,0.282002 0.08764,0.102482 0.237829,0.102482 z" />
      <path
         style="stroke-width:0.02261668;stroke-linecap:butt;stroke-linejoin:round"
         inkscape:connector-curvature="0"
         id="use251"
         d="m 42.746662,24.1245 h 0.875689 v 0.188001 h -0.671432 v 0.403919 q 0.04842,-0.01661 0.09683,-0.02474 0.04877,-0.0081 0.09753,-0.0081 0.275994,0 0.437138,0.15125 0.161497,0.151249 0.161497,0.409573 0,0.2661 -0.165738,0.413815 -0.165738,0.147362 -0.467175,0.147362 -0.103896,0 -0.211678,-0.01767 -0.10743,-0.01767 -0.22228,-0.05301 v -0.2244 q 0.0993,0.05407 0.205317,0.08057 0.106016,0.0265 0.224047,0.0265 0.191181,0 0.302497,-0.100362 0.11167,-0.100362 0.11167,-0.272814 0,-0.172099 -0.11167,-0.27246 -0.111316,-0.100715 -0.302497,-0.100715 -0.08941,0 -0.17846,0.01979 -0.0887,0.01979 -0.181287,0.06184 z" />
      <path
         transform="matrix(0.22616679,0,0,0.22616679,33.31158,13.447997)"
         clip-path="url(#p9be740db07)"
         d="m 69.218182,242.11636 11.706294,-106.64494 11.706293,-18.43692 11.706291,-6.14564 11.7063,-12.29128 11.70629,-6.50715 11.70629,-10.84525 11.7063,-5.422627 11.70629,-0.361506 11.70629,1.503875 11.7063,-9.818569 11.70629,10.433007 11.7063,-8.625464 11.70629,-2.892061 11.70629,-1.962479 11.7063,-0.929595 11.70629,-6.507146 11.70629,-7.976438 11.7063,8.980394 11.70629,-7.511107 11.7063,-3.297968 11.70629,5.805801 11.70629,-7.930452 11.7063,6.879224 11.70629,-4.309417 11.70629,-2.27384 11.7063,-0.585176"
         style="fill:none;stroke:#1f77b4;stroke-width:1.5;stroke-linecap:square;stroke-linejoin:round"
         id="path270"
         inkscape:connector-curvature="0" />
      <path
         transform="matrix(0.22616679,0,0,0.22616679,33.31158,13.447997)"
         clip-path="url(#p9be740db07)"
         d="m 69.218182,123.19474 11.706294,-11.21811 11.706293,12.62036 11.706291,-14.02263 11.7063,-18.229421 11.70629,5.609056 11.70629,-1.402262 11.7063,-11.218104 11.70629,2.804524 11.70629,-4.206785 11.7063,-1.402267 h 11.70629 l 11.7063,9.815843 11.70629,-4.20679 11.70629,-5.609054 11.7063,2.804525 11.70629,1.402265 11.70629,-4.206785 11.7063,-1.402266 h 11.70629 l 11.7063,7.011308 11.70629,-8.41357 11.70629,2.804523 11.7063,-4.206789 11.70629,1.402266 11.70629,15.424888 11.7063,-15.424891"
         style="fill:none;stroke:#ff7f0e;stroke-width:1.5;stroke-linecap:square;stroke-linejoin:round"
         id="path273"
         inkscape:connector-curvature="0" />
    </g>
  </g>
</svg>
